<?xml version="1.0" standalone="no"?><!DOCTYPE svg PUBLIC "-//W3C//DTD SVG 1.1//EN" "http://www.w3.org/Graphics/SVG/1.1/DTD/svg11.dtd"><svg t="1626854110450" class="icon" viewBox="0 0 1024 1024" version="1.1" xmlns="http://www.w3.org/2000/svg" p-id="14924" xmlns:xlink="http://www.w3.org/1999/xlink" width="64" height="64"><defs><style type="text/css"></style></defs><path d="M546.816 35.4304c-16.7936 3.2768-144.1792 26.624-282.624 52.0192L12.288 132.9152l-1.2288 378.88-0.8192 379.2896 244.5312 44.2368c134.7584 24.576 263.3728 47.9232 285.9008 52.0192s42.1888 7.7824 44.2368 7.7824c1.6384 0 2.8672-217.4976 2.8672-483.328 0-384.2048-1.2288-483.328-4.9152-482.9184-2.8672 0.4096-19.2512 3.2768-36.0448 6.5536zM381.3376 368.0256c19.2512 8.6016 35.2256 27.8528 42.5984 51.2 6.5536 20.8896 3.6864 74.1376-5.3248 91.3408-21.7088 41.3696-55.7056 61.8496-107.7248 65.536L276.48 578.56V683.8272h-21.2992c-11.8784 0-25.8048-1.2288-30.72-2.4576L215.04 678.912V372.9408l17.6128-2.048c9.4208-1.2288 28.2624-4.096 41.7792-6.144 44.2368-6.5536 88.4736-4.9152 106.9056 3.2768z" p-id="14925"></path><path d="M285.9008 420.4544c-9.0112 1.6384-9.4208 3.2768-9.4208 50.7904v48.7424h16.384c21.2992 0 42.1888-8.6016 50.7904-20.8896 7.7824-11.0592 9.0112-48.7424 2.048-61.8496-7.7824-14.7456-33.5872-21.7088-59.8016-16.7936zM616.448 220.9792v57.344h282.624v200.704h33.1776c18.8416 0 32.3584 1.6384 31.5392 3.6864-2.048 5.7344-90.9312 110.592-94.208 110.592-2.8672 0.4096-97.4848-108.544-97.4848-112.2304 0-1.2288 15.5648-2.048 34.816-2.048h34.816v-143.36H616.448v309.248l49.152-49.152 49.152-49.152 56.5248 56.5248 56.1152 56.1152-56.1152 56.1152-56.5248 56.5248-49.152-49.152-49.152-49.152v194.56h397.312v-704.512H616.448v57.344z" p-id="14926"></path></svg>