<?xml version="1.0" standalone="no"?><!DOCTYPE svg PUBLIC "-//W3C//DTD SVG 1.1//EN" "http://www.w3.org/Graphics/SVG/1.1/DTD/svg11.dtd"><svg t="1626403226679" class="icon" viewBox="0 0 1024 1024" version="1.1" xmlns="http://www.w3.org/2000/svg" p-id="11848" xmlns:xlink="http://www.w3.org/1999/xlink" width="64" height="64"><defs><style type="text/css"></style></defs><path d="M363.008 892.416s-22.016-214.528 176.64-214.528c219.136 0 181.76 214.016 181.76 214.016s129.536-67.584 125.952-171.008c-3.584-103.424 91.648-386.048-57.856-436.736s-371.712-133.632-457.216-66.56-239.616 464.384 30.72 674.816z" fill="#3A312A" p-id="11849"></path><path d="M847.36 486.912c0 234.496-202.752 370.176-308.736 370.176-110.08 0-308.736-135.168-308.736-370.176 0-164.864 138.24-298.496 308.736-298.496s308.736 133.632 308.736 298.496z" fill="#CFD8DC" p-id="11850"></path><path d="M465.92 415.232s0.512 7.168-62.976 14.336c-65.536 7.168-93.184 16.384-105.472 27.648-12.288 10.752 7.168-1.024 50.176-9.216 52.224-9.216 86.528-2.048 107.52-12.8 15.872-7.168 10.752-19.968 10.752-19.968z" fill="#4C4642" p-id="11851"></path><path d="M396.288 520.192m-62.976 0a62.976 62.976 0 1 0 125.952 0 62.976 62.976 0 1 0-125.952 0Z" fill="#59534F" p-id="11852"></path><path d="M416.832655 532.944075a17.408 17.408 0 1 0 24.6182-24.61906 17.408 17.408 0 1 0-24.6182 24.61906Z" fill="#3A312A" p-id="11853"></path><path d="M382.321623 499.123308a17.408 17.408 0 1 0 24.6182-24.61906 17.408 17.408 0 1 0-24.6182 24.61906Z" fill="#3A312A" p-id="11854"></path><path d="M385.015049 564.346539a17.408 17.408 0 1 0 24.6182-24.61906 17.408 17.408 0 1 0-24.6182 24.61906Z" fill="#3A312A" p-id="11855"></path><path d="M351.673562 529.8941a17.408 17.408 0 1 0 24.6182-24.619059 17.408 17.408 0 1 0-24.6182 24.619059Z" fill="#3A312A" p-id="11856"></path><path d="M555.008 145.92c-48.64-10.752-86.528-10.24-197.12 17.92-111.104 28.16-195.072 50.688-217.6 168.96-17.92 90.112-28.16 244.736 90.112 439.296 78.848 129.536 136.704 122.368 133.632 120.32-2.048-1.024-62.976-168.96-27.136-364.544C372.224 336.384 435.2 294.4 493.568 301.056c58.368 6.656 77.824 12.8 77.824 12.8s51.2-153.088-16.384-167.936z" fill="#3A312A" p-id="11857"></path><path d="M659.456 520.192m-62.976 0a62.976 62.976 0 1 0 125.952 0 62.976 62.976 0 1 0-125.952 0Z" fill="#59534F" p-id="11858"></path><path d="M679.561579 532.956284a17.408 17.408 0 1 0 24.6182-24.619059 17.408 17.408 0 1 0-24.6182 24.619059Z" fill="#3A312A" p-id="11859"></path><path d="M645.589116 499.404461a17.408 17.408 0 1 0 24.6182-24.61906 17.408 17.408 0 1 0-24.6182 24.61906Z" fill="#3A312A" p-id="11860"></path><path d="M648.643075 564.262026a17.408 17.408 0 1 0 24.6182-24.619059 17.408 17.408 0 1 0-24.6182 24.619059Z" fill="#3A312A" p-id="11861"></path><path d="M615.306708 529.811708a17.408 17.408 0 1 0 24.6182-24.619059 17.408 17.408 0 1 0-24.6182 24.619059Z" fill="#3A312A" p-id="11862"></path><path d="M581.12 400.896s-0.512 7.168 62.976 14.336c65.536 7.168 93.184 16.384 105.472 27.648 12.288 10.752-7.168-1.024-50.176-9.216-52.224-9.216-84.48-0.512-105.984-9.728-21.504-8.704-12.288-23.04-12.288-23.04z" fill="#4C4642" p-id="11863"></path><path d="M481.792 738.816c35.328 11.264 50.176 13.824 81.92 7.168 31.744-6.656 61.44-24.576 61.44-24.576l31.232-31.232 9.216-12.288s-13.824 20.992-70.144 27.136-88.576 8.192-90.112 8.192c-2.048 0.512-46.08 4.096-48.64 3.584-2.56-0.512-36.352-13.312-36.352-13.312l61.44 35.328z" fill="#FFFFFF" p-id="11864"></path><path d="M407.04 695.808s2.048 1.024 5.632 4.096c9.728 6.656 31.232 20.48 61.44 31.744 41.472 16.384 64.512 12.8 93.184 6.144s62.976-28.16 78.848-41.472c11.264-10.24 24.576-23.552 24.576-23.552s-29.696 50.688-69.12 72.192c-39.936 21.504-56.32 24.064-96.768 16.384-33.792-6.656-97.792-65.536-97.792-65.536z" fill="#AD1457" p-id="11865"></path><path d="M527.872 708.096s-7.68-6.144-19.456-6.656c-21.504-0.512-26.112 11.264-43.52 11.264-17.408 0-52.224-13.312-52.224-13.312s2.56 2.048 6.656 4.096c7.68 4.608 23.04 12.288 41.984 14.336 42.496 5.632 89.088 2.56 119.808-4.608 55.296-13.312 85.504-37.376 85.504-37.376s-48.128 19.968-79.36 19.968c-30.208 0-34.816-3.584-47.616 2.56-8.192 4.096-9.728 8.192-11.776 9.728z" fill="#AD1457" p-id="11866"></path><path d="M615.424 670.208m-5.632 0a5.632 5.632 0 1 0 11.264 0 5.632 5.632 0 1 0-11.264 0Z" fill="#3A312A" p-id="11867"></path><path d="M571.392 313.856s74.24-36.352 151.04-11.264c76.8 24.576 73.216 308.224 57.344 377.856-16.384 69.632-57.856 211.968-57.856 211.968s92.16-47.104 113.152-112.128c21.504-65.024 22.016-227.328 30.72-272.896 8.192-45.568 34.816-202.752-40.96-274.432s-222.208-86.528-235.008-60.928c-13.824 25.6-18.432 141.824-18.432 141.824z" fill="#3A312A" p-id="11868"></path></svg>